<?xml version="1.0" standalone="no"?>
<!DOCTYPE svg PUBLIC "-//W3C//DTD SVG 20010904//EN"
        "http://www.w3.org/TR/2001/REC-SVG-20010904/DTD/svg10.dtd">
<svg version="1.0" xmlns="http://www.w3.org/2000/svg"
     width="700.000000pt" height="700.000000pt" viewBox="0 0 700.000000 700.000000"
     preserveAspectRatio="xMidYMid meet">
    <metadata>
        Created by potrace 1.11, written by Peter Selinger 2001-2013
    </metadata>
    <g transform="translate(0.000000,700.000000) scale(0.100000,-0.100000)"
       fill="#000000" stroke="none">
        <path d="M3280 6994 c-19 -2 -84 -9 -145 -14 -581 -55 -1177 -280 -1662 -628
-182 -131 -302 -234 -469 -404 -176 -179 -290 -319 -419 -513 -314 -474 -498
-984 -567 -1570 -16 -143 -16 -587 0 -730 95 -807 421 -1502 967 -2064 587
-603 1292 -948 2150 -1053 130 -16 600 -16 730 0 556 68 1037 233 1480 509
448 279 853 682 1122 1117 284 459 450 939 515 1491 17 145 17 576 0 730 -78
705 -349 1341 -804 1889 -88 106 -320 336 -431 429 -531 441 -1145 707 -1837
793 -110 14 -556 27 -630 18z m606 -559 c65 -32 406 -374 430 -431 23 -54 21
-142 -4 -190 -13 -24 -466 -484 -1149 -1166 -1039 -1037 -1132 -1127 -1173
-1138 -53 -14 -126 -8 -172 16 -50 25 -392 371 -418 423 -28 57 -29 144 -1
198 11 22 485 503 1148 1165 895 894 1135 1129 1163 1136 63 18 123 14 176
-13z m92 -2020 c49 -21 406 -376 432 -431 27 -54 27 -144 0 -198 -28 -58
-1151 -1180 -1202 -1201 -48 -19 -138 -19 -186 0 -52 22 -405 375 -432 432
-28 61 -27 141 4 201 32 62 1132 1162 1191 1191 49 25 141 27 193 6z m1157
-939 c37 -17 98 -73 231 -207 100 -101 189 -198 198 -215 26 -53 30 -106 11
-170 l-16 -59 -1122 -1122 c-1185 -1185 -1160 -1162 -1252 -1163 -93 0 -108
10 -319 218 -124 124 -205 212 -217 237 -23 49 -24 132 -4 183 11 26 344 365
1133 1156 901 902 1127 1123 1167 1142 65 31 125 31 190 0z"/>
    </g>
</svg>